<svg xmlns="http://www.w3.org/2000/svg" width="900" height="480">
<rect width="100%" height="100%" fill="#ffffff"/>
<text x="450.0" y="30" text-anchor="middle" font-size="18" font-family="sans-serif">Grokking Accuracy</text>
<text x="450.0" y="470" text-anchor="middle" font-size="12" font-family="sans-serif">epoch</text>
<text x="15" y="240.0" text-anchor="middle" font-size="12" font-family="sans-serif" transform="rotate(-90 15,240.0)">accuracy</text>
<rect x="60" y="60" width="780" height="360" fill="none" stroke="#333" stroke-width="1"/>
<path d="M60.00,214.08 L63.92,137.04 L67.84,162.72 L71.76,60.00 L75.68,60.00 L79.60,111.36 L83.52,111.36 L87.44,60.00 L91.36,85.68 L95.28,85.68 L99.20,60.00 L103.12,60.00 L107.04,60.00 L110.95,60.00 L114.87,111.36 L118.79,162.72 L122.71,188.40 L126.63,214.08 L130.55,291.12 L134.47,316.80 L138.39,291.12 L142.31,265.44 L146.23,239.76 L150.15,239.76 L154.07,239.76 L157.99,214.08 L161.91,188.40 L165.83,188.40 L169.75,188.40 L173.67,162.72 L177.59,162.72 L181.51,162.72 L185.43,137.04 L189.35,111.36 L193.27,85.68 L197.19,85.68 L201.11,85.68 L205.03,85.68 L208.94,85.68 L212.86,85.68 L216.78,85.68 L220.70,85.68 L224.62,85.68 L228.54,85.68 L232.46,85.68 L236.38,85.68 L240.30,85.68 L244.22,85.68 L248.14,85.68 L252.06,85.68 L255.98,85.68 L259.90,85.68 L263.82,85.68 L267.74,85.68 L271.66,85.68 L275.58,85.68 L279.50,85.68 L283.42,85.68 L287.34,85.68 L291.26,85.68 L295.18,85.68 L299.10,85.68 L303.02,85.68 L306.93,85.68 L310.85,85.68 L314.77,85.68 L318.69,85.68 L322.61,85.68 L326.53,85.68 L330.45,85.68 L334.37,85.68 L338.29,85.68 L342.21,85.68 L346.13,85.68 L350.05,85.68 L353.97,85.68 L357.89,85.68 L361.81,85.68 L365.73,85.68 L369.65,85.68 L373.57,85.68 L377.49,85.68 L381.41,85.68 L385.33,85.68 L389.25,85.68 L393.17,85.68 L397.09,85.68 L401.01,85.68 L404.92,85.68 L408.84,85.68 L412.76,85.68 L416.68,85.68 L420.60,85.68 L424.52,85.68 L428.44,85.68 L432.36,85.68 L436.28,85.68 L440.20,85.68 L444.12,85.68 L448.04,85.68 L451.96,85.68 L455.88,85.68 L459.80,85.68 L463.72,85.68 L467.64,85.68 L471.56,85.68 L475.48,85.68 L479.40,85.68 L483.32,85.68 L487.24,85.68 L491.16,85.68 L495.08,85.68 L498.99,85.68 L502.91,85.68 L506.83,85.68 L510.75,85.68 L514.67,85.68 L518.59,85.68 L522.51,85.68 L526.43,85.68 L530.35,85.68 L534.27,85.68 L538.19,85.68 L542.11,85.68 L546.03,85.68 L549.95,85.68 L553.87,85.68 L557.79,85.68 L561.71,85.68 L565.63,85.68 L569.55,85.68 L573.47,85.68 L577.39,85.68 L581.31,85.68 L585.23,85.68 L589.15,85.68 L593.07,85.68 L596.98,85.68 L600.90,85.68 L604.82,85.68 L608.74,85.68 L612.66,85.68 L616.58,85.68 L620.50,85.68 L624.42,85.68 L628.34,85.68 L632.26,85.68 L636.18,85.68 L640.10,85.68 L644.02,85.68 L647.94,85.68 L651.86,85.68 L655.78,85.68 L659.70,85.68 L663.62,85.68 L667.54,85.68 L671.46,85.68 L675.38,85.68 L679.30,85.68 L683.22,85.68 L687.14,85.68 L691.06,85.68 L694.97,85.68 L698.89,85.68 L702.81,85.68 L706.73,85.68 L710.65,85.68 L714.57,85.68 L718.49,85.68 L722.41,85.68 L726.33,85.68 L730.25,85.68 L734.17,85.68 L738.09,85.68 L742.01,85.68 L745.93,85.68 L749.85,85.68 L753.77,85.68 L757.69,85.68 L761.61,85.68 L765.53,85.68 L769.45,85.68 L773.37,85.68 L777.29,85.68 L781.21,85.68 L785.13,85.68 L789.05,85.68 L792.96,85.68 L796.88,85.68 L800.80,85.68 L804.72,85.68 L808.64,85.68 L812.56,85.68 L816.48,85.68 L820.40,85.68 L824.32,85.68 L828.24,85.68 L832.16,85.68 L836.08,85.68 L840.00,85.68" fill="none" stroke="#1f77b4" stroke-width="2"/>
<text x="70" y="78" font-size="12" font-family="sans-serif" fill="#1f77b4">train_acc</text>
<path d="M60.00,291.87 L63.92,291.87 L67.84,343.12 L71.76,317.49 L75.68,343.12 L79.60,343.12 L83.52,368.75 L87.44,343.12 L91.36,394.37 L95.28,394.37 L99.20,394.37 L103.12,394.37 L107.04,394.37 L110.95,394.37 L114.87,368.75 L118.79,368.75 L122.71,343.12 L126.63,343.12 L130.55,343.12 L134.47,343.12 L138.39,317.49 L142.31,317.49 L146.23,317.49 L150.15,317.49 L154.07,343.12 L157.99,343.12 L161.91,343.12 L165.83,343.12 L169.75,343.12 L173.67,317.49 L177.59,317.49 L181.51,343.12 L185.43,368.75 L189.35,394.37 L193.27,368.75 L197.19,368.75 L201.11,394.37 L205.03,420.00 L208.94,420.00 L212.86,420.00 L216.78,420.00 L220.70,420.00 L224.62,420.00 L228.54,420.00 L232.46,420.00 L236.38,420.00 L240.30,420.00 L244.22,420.00 L248.14,420.00 L252.06,420.00 L255.98,420.00 L259.90,420.00 L263.82,420.00 L267.74,420.00 L271.66,420.00 L275.58,420.00 L279.50,420.00 L283.42,420.00 L287.34,420.00 L291.26,420.00 L295.18,420.00 L299.10,420.00 L303.02,420.00 L306.93,420.00 L310.85,420.00 L314.77,420.00 L318.69,420.00 L322.61,420.00 L326.53,420.00 L330.45,420.00 L334.37,420.00 L338.29,420.00 L342.21,420.00 L346.13,420.00 L350.05,420.00 L353.97,420.00 L357.89,420.00 L361.81,420.00 L365.73,420.00 L369.65,420.00 L373.57,420.00 L377.49,420.00 L381.41,420.00 L385.33,420.00 L389.25,420.00 L393.17,420.00 L397.09,420.00 L401.01,420.00 L404.92,420.00 L408.84,420.00 L412.76,420.00 L416.68,420.00 L420.60,420.00 L424.52,420.00 L428.44,420.00 L432.36,420.00 L436.28,420.00 L440.20,420.00 L444.12,420.00 L448.04,420.00 L451.96,420.00 L455.88,420.00 L459.80,420.00 L463.72,420.00 L467.64,420.00 L471.56,420.00 L475.48,420.00 L479.40,420.00 L483.32,420.00 L487.24,420.00 L491.16,420.00 L495.08,420.00 L498.99,420.00 L502.91,420.00 L506.83,420.00 L510.75,420.00 L514.67,420.00 L518.59,420.00 L522.51,420.00 L526.43,420.00 L530.35,420.00 L534.27,420.00 L538.19,420.00 L542.11,420.00 L546.03,420.00 L549.95,420.00 L553.87,420.00 L557.79,420.00 L561.71,420.00 L565.63,420.00 L569.55,420.00 L573.47,420.00 L577.39,420.00 L581.31,420.00 L585.23,420.00 L589.15,420.00 L593.07,420.00 L596.98,420.00 L600.90,420.00 L604.82,420.00 L608.74,420.00 L612.66,420.00 L616.58,420.00 L620.50,420.00 L624.42,420.00 L628.34,420.00 L632.26,420.00 L636.18,420.00 L640.10,420.00 L644.02,420.00 L647.94,420.00 L651.86,420.00 L655.78,420.00 L659.70,420.00 L663.62,420.00 L667.54,420.00 L671.46,420.00 L675.38,420.00 L679.30,420.00 L683.22,420.00 L687.14,420.00 L691.06,420.00 L694.97,420.00 L698.89,420.00 L702.81,420.00 L706.73,420.00 L710.65,420.00 L714.57,420.00 L718.49,420.00 L722.41,420.00 L726.33,420.00 L730.25,420.00 L734.17,420.00 L738.09,420.00 L742.01,420.00 L745.93,420.00 L749.85,420.00 L753.77,420.00 L757.69,420.00 L761.61,420.00 L765.53,420.00 L769.45,420.00 L773.37,420.00 L777.29,420.00 L781.21,420.00 L785.13,420.00 L789.05,420.00 L792.96,420.00 L796.88,420.00 L800.80,420.00 L804.72,420.00 L808.64,420.00 L812.56,420.00 L816.48,420.00 L820.40,420.00 L824.32,420.00 L828.24,420.00 L832.16,420.00 L836.08,420.00 L840.00,420.00" fill="none" stroke="#d62728" stroke-width="2"/>
<text x="70" y="96" font-size="12" font-family="sans-serif" fill="#d62728">test_acc</text>
</svg>