<svg xmlns="http://www.w3.org/2000/svg" width="900" height="480">
<rect width="100%" height="100%" fill="#ffffff"/>
<text x="450.0" y="30" text-anchor="middle" font-size="18" font-family="sans-serif">Grokking Loss</text>
<text x="450.0" y="470" text-anchor="middle" font-size="12" font-family="sans-serif">epoch</text>
<text x="15" y="240.0" text-anchor="middle" font-size="12" font-family="sans-serif" transform="rotate(-90 15,240.0)">loss</text>
<rect x="60" y="60" width="780" height="360" fill="none" stroke="#333" stroke-width="1"/>
<path d="M60.00,60.00 L63.92,62.28 L67.84,64.59 L71.76,66.91 L75.68,69.19 L79.60,71.48 L83.52,73.76 L87.44,76.04 L91.36,78.29 L95.28,80.59 L99.20,82.83 L103.12,85.10 L107.04,87.35 L110.95,89.56 L114.87,91.77 L118.79,94.08 L122.71,96.23 L126.63,98.50 L130.55,100.65 L134.47,102.90 L138.39,105.12 L142.31,107.29 L146.23,109.50 L150.15,111.65 L154.07,113.84 L157.99,116.01 L161.91,118.17 L165.83,120.35 L169.75,122.50 L173.67,124.67 L177.59,126.85 L181.51,128.94 L185.43,131.03 L189.35,133.17 L193.27,135.32 L197.19,137.44 L201.11,139.60 L205.03,141.61 L208.94,143.73 L212.86,145.91 L216.78,147.89 L220.70,149.98 L224.62,152.13 L228.54,154.24 L232.46,156.34 L236.38,158.31 L240.30,160.40 L244.22,162.41 L248.14,164.41 L252.06,166.62 L255.98,168.68 L259.90,170.71 L263.82,172.55 L267.74,174.76 L271.66,176.59 L275.58,178.74 L279.50,180.78 L283.42,182.68 L287.34,184.72 L291.26,186.62 L295.18,188.70 L299.10,190.58 L303.02,192.57 L306.93,194.53 L310.85,196.63 L314.77,198.38 L318.69,200.30 L322.61,202.43 L326.53,204.42 L330.45,206.20 L334.37,208.18 L338.29,209.99 L342.21,212.01 L346.13,214.02 L350.05,215.87 L353.97,217.91 L357.89,219.58 L361.81,221.83 L365.73,223.58 L369.65,225.22 L373.57,227.29 L377.49,228.97 L381.41,231.17 L385.33,232.96 L389.25,234.92 L393.17,236.61 L397.09,238.34 L401.01,240.54 L404.92,242.20 L408.84,244.12 L412.76,245.87 L416.68,247.81 L420.60,249.62 L424.52,251.45 L428.44,253.15 L432.36,254.81 L436.28,256.79 L440.20,258.59 L444.12,260.54 L448.04,262.09 L451.96,263.86 L455.88,265.84 L459.80,267.44 L463.72,269.02 L467.64,271.06 L471.56,272.75 L475.48,274.65 L479.40,276.25 L483.32,278.24 L487.24,279.89 L491.16,281.32 L495.08,283.29 L498.99,285.28 L502.91,286.69 L506.83,288.79 L510.75,290.13 L514.67,292.08 L518.59,293.67 L522.51,295.50 L526.43,297.01 L530.35,298.88 L534.27,300.57 L538.19,302.28 L542.11,303.68 L546.03,305.81 L549.95,307.07 L553.87,308.86 L557.79,310.60 L561.71,312.15 L565.63,314.15 L569.55,315.60 L573.47,317.28 L577.39,318.58 L581.31,320.65 L585.23,322.11 L589.15,323.60 L593.07,325.63 L596.98,327.12 L600.90,328.67 L604.82,329.94 L608.74,332.07 L612.66,333.37 L616.58,334.95 L620.50,336.81 L624.42,338.31 L628.34,340.14 L632.26,341.19 L636.18,343.04 L640.10,344.63 L644.02,346.15 L647.94,347.64 L651.86,349.23 L655.78,350.89 L659.70,352.12 L663.62,354.25 L667.54,355.81 L671.46,357.06 L675.38,358.63 L679.30,360.00 L683.22,361.72 L687.14,362.94 L691.06,364.76 L694.97,366.61 L698.89,367.66 L702.81,369.25 L706.73,371.07 L710.65,372.68 L714.57,373.22 L718.49,375.48 L722.41,377.04 L726.33,378.48 L730.25,379.83 L734.17,381.42 L738.09,382.64 L742.01,384.14 L745.93,385.69 L749.85,387.33 L753.77,388.32 L757.69,389.89 L761.61,391.58 L765.53,393.47 L769.45,394.50 L773.37,396.13 L777.29,397.33 L781.21,398.52 L785.13,400.12 L789.05,402.05 L792.96,403.47 L796.88,404.50 L800.80,406.31 L804.72,407.21 L808.64,408.74 L812.56,410.37 L816.48,411.70 L820.40,413.06 L824.32,414.63 L828.24,415.91 L832.16,417.13 L836.08,418.52 L840.00,420.00" fill="none" stroke="#1f77b4" stroke-width="2"/>
<text x="70" y="78" font-size="12" font-family="sans-serif" fill="#1f77b4">train_loss</text>
<path d="M60.00,61.70 L63.92,63.86 L67.84,66.01 L71.76,68.15 L75.68,70.29 L79.60,72.42 L83.52,74.54 L87.44,76.66 L91.36,78.78 L95.28,80.89 L99.20,82.99 L103.12,85.09 L107.04,87.18 L110.95,89.26 L114.87,91.34 L118.79,93.42 L122.71,95.49 L126.63,97.55 L130.55,99.61 L134.47,101.66 L138.39,103.71 L142.31,105.75 L146.23,107.79 L150.15,109.82 L154.07,111.84 L157.99,113.86 L161.91,115.88 L165.83,117.89 L169.75,119.89 L173.67,121.89 L177.59,123.88 L181.51,125.87 L185.43,127.85 L189.35,129.83 L193.27,131.80 L197.19,133.76 L201.11,135.72 L205.03,137.68 L208.94,139.63 L212.86,141.58 L216.78,143.52 L220.70,145.45 L224.62,147.38 L228.54,149.30 L232.46,151.22 L236.38,153.13 L240.30,155.04 L244.22,156.94 L248.14,158.84 L252.06,160.74 L255.98,162.62 L259.90,164.50 L263.82,166.38 L267.74,168.25 L271.66,170.12 L275.58,171.98 L279.50,173.84 L283.42,175.69 L287.34,177.54 L291.26,179.38 L295.18,181.22 L299.10,183.05 L303.02,184.88 L306.93,186.71 L310.85,188.52 L314.77,190.34 L318.69,192.15 L322.61,193.95 L326.53,195.75 L330.45,197.54 L334.37,199.33 L338.29,201.12 L342.21,202.90 L346.13,204.68 L350.05,206.45 L353.97,208.21 L357.89,209.97 L361.81,211.73 L365.73,213.47 L369.65,215.22 L373.57,216.97 L377.49,218.70 L381.41,220.44 L385.33,222.16 L389.25,223.88 L393.17,225.60 L397.09,227.32 L401.01,229.02 L404.92,230.73 L408.84,232.43 L412.76,234.12 L416.68,235.81 L420.60,237.50 L424.52,239.18 L428.44,240.85 L432.36,242.53 L436.28,244.20 L440.20,245.86 L444.12,247.52 L448.04,249.17 L451.96,250.83 L455.88,252.47 L459.80,254.11 L463.72,255.75 L467.64,257.39 L471.56,259.02 L475.48,260.64 L479.40,262.26 L483.32,263.87 L487.24,265.48 L491.16,267.09 L495.08,268.70 L498.99,270.29 L502.91,271.89 L506.83,273.47 L510.75,275.06 L514.67,276.64 L518.59,278.21 L522.51,279.78 L526.43,281.35 L530.35,282.91 L534.27,284.47 L538.19,286.03 L542.11,287.58 L546.03,289.12 L549.95,290.67 L553.87,292.21 L557.79,293.74 L561.71,295.27 L565.63,296.80 L569.55,298.32 L573.47,299.83 L577.39,301.35 L581.31,302.86 L585.23,304.36 L589.15,305.87 L593.07,307.36 L596.98,308.85 L600.90,310.34 L604.82,311.83 L608.74,313.31 L612.66,314.79 L616.58,316.26 L620.50,317.73 L624.42,319.20 L628.34,320.65 L632.26,322.11 L636.18,323.57 L640.10,325.02 L644.02,326.46 L647.94,327.91 L651.86,329.35 L655.78,330.78 L659.70,332.21 L663.62,333.64 L667.54,335.06 L671.46,336.48 L675.38,337.89 L679.30,339.31 L683.22,340.71 L687.14,342.12 L691.06,343.52 L694.97,344.91 L698.89,346.31 L702.81,347.69 L706.73,349.08 L710.65,350.46 L714.57,351.84 L718.49,353.21 L722.41,354.58 L726.33,355.94 L730.25,357.31 L734.17,358.66 L738.09,360.02 L742.01,361.37 L745.93,362.72 L749.85,364.06 L753.77,365.41 L757.69,366.75 L761.61,368.08 L765.53,369.41 L769.45,370.73 L773.37,372.05 L777.29,373.37 L781.21,374.69 L785.13,376.00 L789.05,377.31 L792.96,378.61 L796.88,379.91 L800.80,381.21 L804.72,382.50 L808.64,383.79 L812.56,385.08 L816.48,386.36 L820.40,387.64 L824.32,388.92 L828.24,390.19 L832.16,391.46 L836.08,392.73 L840.00,393.99" fill="none" stroke="#d62728" stroke-width="2"/>
<text x="70" y="96" font-size="12" font-family="sans-serif" fill="#d62728">test_loss</text>
</svg>