<svg xmlns="http://www.w3.org/2000/svg" width="900" height="480">
<rect width="100%" height="100%" fill="#ffffff"/>
<text x="450.0" y="30" text-anchor="middle" font-size="18" font-family="sans-serif">sin/cos</text>
<text x="450.0" y="470" text-anchor="middle" font-size="12" font-family="sans-serif">x</text>
<text x="15" y="240.0" text-anchor="middle" font-size="12" font-family="sans-serif" transform="rotate(-90 15,240.0)">value</text>
<rect x="60" y="60" width="780" height="360" fill="none" stroke="#333" stroke-width="1"/>
<path d="M60.00,240.00 L61.24,222.03 L62.48,204.24 L63.73,186.81 L64.97,169.91 L66.21,153.70 L67.45,138.36 L68.69,124.04 L69.94,110.88 L71.18,99.00 L72.42,88.54 L73.66,79.58 L74.90,72.23 L76.15,66.56 L77.39,62.62 L78.63,60.45 L79.87,60.08 L81.11,61.50 L82.36,64.71 L83.60,69.67 L84.84,76.33 L86.08,84.62 L87.32,94.47 L88.57,105.77 L89.81,118.42 L91.05,132.28 L92.29,147.21 L93.54,163.07 L94.78,179.70 L96.02,196.94 L97.26,214.60 L98.50,232.52 L99.75,250.51 L100.99,268.40 L102.23,286.00 L103.47,303.14 L104.71,319.65 L105.96,335.37 L107.20,350.14 L108.44,363.80 L109.68,376.23 L110.92,387.29 L112.17,396.89 L113.41,404.91 L114.65,411.29 L115.89,415.96 L117.13,418.87 L118.38,419.99 L119.62,419.31 L120.86,416.84 L122.10,412.61 L123.34,406.65 L124.59,399.02 L125.83,389.81 L127.07,379.10 L128.31,367.00 L129.55,353.63 L130.80,339.12 L132.04,323.63 L133.28,307.30 L134.52,290.30 L135.76,272.79 L137.01,254.96 L138.25,236.97 L139.49,219.02 L140.73,201.28 L141.97,183.92 L143.22,167.13 L144.46,151.06 L145.70,135.88 L146.94,121.74 L148.18,108.79 L149.43,97.14 L150.67,86.92 L151.91,78.23 L153.15,71.16 L154.39,65.77 L155.64,62.13 L156.88,60.26 L158.12,60.19 L159.36,61.92 L160.61,65.42 L161.85,70.67 L163.09,77.61 L164.33,86.17 L165.57,96.27 L166.82,107.81 L168.06,120.67 L169.30,134.72 L170.54,149.82 L171.78,165.82 L173.03,182.56 L174.27,199.88 L175.51,217.60 L176.75,235.54 L177.99,253.53 L179.24,271.38 L180.48,288.92 L181.72,305.97 L182.96,322.36 L184.20,337.93 L185.45,352.51 L186.69,365.98 L187.93,378.19 L189.17,389.01 L190.41,398.35 L191.66,406.10 L192.90,412.20 L194.14,416.57 L195.38,419.18 L196.62,420.00 L197.87,419.02 L199.11,416.25 L200.35,411.73 L201.59,405.48 L202.83,397.58 L204.08,388.11 L205.32,377.16 L206.56,364.84 L207.80,351.27 L209.04,336.58 L210.29,320.94 L211.53,304.48 L212.77,287.38 L214.01,269.81 L215.25,251.94 L216.50,233.95 L217.74,216.02 L218.98,198.33 L220.22,181.06 L221.46,164.37 L222.71,148.44 L223.95,133.43 L225.19,119.48 L226.43,106.73 L227.68,95.32 L228.92,85.35 L230.16,76.93 L231.40,70.13 L232.64,65.04 L233.89,61.69 L235.13,60.12 L236.37,60.36 L237.61,62.38 L238.85,66.18 L240.10,71.72 L241.34,78.94 L242.58,87.77 L243.82,98.11 L245.06,109.88 L246.31,122.95 L247.55,137.18 L248.79,152.45 L250.03,168.59 L251.27,185.44 L252.52,202.84 L253.76,220.61 L255.00,238.57 L256.24,256.54 L257.48,274.36 L258.73,291.82 L259.97,308.77 L261.21,325.04 L262.45,340.45 L263.69,354.86 L264.94,368.12 L266.18,380.10 L267.42,390.69 L268.66,399.76 L269.90,407.24 L271.15,413.05 L272.39,417.13 L273.63,419.44 L274.87,419.96 L276.11,418.68 L277.36,415.61 L278.60,410.79 L279.84,404.27 L281.08,396.10 L282.32,386.37 L283.57,375.18 L284.81,362.64 L286.05,348.87 L287.29,334.02 L288.54,318.22 L289.78,301.65 L291.02,284.46 L292.26,266.82 L293.50,248.92 L294.75,230.92 L295.99,213.02 L297.23,195.39 L298.47,178.20 L299.71,161.63 L300.96,145.85 L302.20,131.00 L303.44,117.25 L304.68,104.72 L305.92,93.54 L307.17,83.82 L308.41,75.67 L309.65,69.16 L310.89,64.35 L312.13,61.30 L313.38,60.04 L314.62,60.57 L315.86,62.90 L317.10,66.99 L318.34,72.82 L319.59,80.31 L320.83,89.40 L322.07,100.00 L323.31,111.99 L324.55,125.26 L325.80,139.68 L327.04,155.11 L328.28,171.38 L329.52,188.33 L330.76,205.80 L332.01,223.62 L333.25,241.59 L334.49,259.56 L335.73,277.32 L336.97,294.71 L338.22,311.56 L339.46,327.69 L340.70,342.95 L341.94,357.17 L343.18,370.23 L344.43,381.99 L345.67,392.32 L346.91,401.14 L348.15,408.34 L349.39,413.86 L350.64,417.65 L351.88,419.66 L353.12,419.87 L354.36,418.29 L355.61,414.93 L356.85,409.81 L358.09,403.01 L359.33,394.57 L360.57,384.59 L361.82,373.16 L363.06,360.41 L364.30,346.45 L365.54,331.42 L366.78,315.49 L368.03,298.80 L369.27,281.52 L370.51,263.82 L371.75,245.89 L372.99,227.90 L374.24,210.03 L375.48,192.46 L376.72,175.37 L377.96,158.92 L379.20,143.28 L380.45,128.61 L381.69,115.05 L382.93,102.74 L384.17,91.80 L385.41,82.34 L386.66,74.46 L387.90,68.23 L389.14,63.72 L390.38,60.96 L391.62,60.00 L392.87,60.84 L394.11,63.46 L395.35,67.85 L396.59,73.96 L397.83,81.73 L399.08,91.08 L400.32,101.92 L401.56,114.14 L402.80,127.61 L404.04,142.21 L405.29,157.79 L406.53,174.18 L407.77,191.24 L409.01,208.78 L410.25,226.63 L411.50,244.62 L412.74,262.56 L413.98,280.28 L415.22,297.59 L416.46,314.33 L417.71,330.32 L418.95,345.42 L420.19,359.46 L421.43,372.30 L422.68,383.83 L423.92,393.91 L425.16,402.46 L426.40,409.39 L427.64,414.62 L428.89,418.11 L430.13,419.82 L431.37,419.73 L432.61,417.85 L433.85,414.19 L435.10,408.79 L436.34,401.70 L437.58,393.00 L438.82,382.76 L440.06,371.11 L441.31,358.14 L442.55,343.99 L443.79,328.80 L445.03,312.73 L446.27,295.93 L447.52,278.57 L448.76,260.82 L450.00,242.87 L451.24,224.89 L452.48,207.05 L453.73,189.55 L454.97,172.55 L456.21,156.23 L457.45,140.74 L458.69,126.25 L459.94,112.89 L461.18,100.80 L462.42,90.10 L463.66,80.90 L464.90,73.29 L466.15,67.35 L467.39,63.13 L468.63,60.68 L469.87,60.02 L471.11,61.15 L472.36,64.08 L473.60,68.76 L474.84,75.15 L476.08,83.19 L477.32,92.80 L478.57,103.88 L479.81,116.32 L481.05,129.99 L482.29,144.77 L483.54,160.49 L484.78,177.01 L486.02,194.16 L487.26,211.76 L488.50,229.65 L489.75,247.65 L490.99,265.56 L492.23,283.22 L493.47,300.45 L494.71,317.07 L495.96,332.93 L497.20,347.85 L498.44,361.70 L499.68,374.33 L500.92,385.62 L502.17,395.46 L503.41,403.74 L504.65,410.39 L505.89,415.33 L507.13,418.52 L508.38,419.93 L509.62,419.54 L510.86,417.36 L512.10,413.40 L513.34,407.71 L514.59,400.35 L515.83,391.38 L517.07,380.90 L518.31,369.01 L519.55,355.84 L520.80,341.51 L522.04,326.16 L523.28,309.95 L524.52,293.04 L525.76,275.60 L527.01,257.81 L528.25,239.84 L529.49,221.87 L530.73,204.08 L531.97,186.65 L533.22,169.76 L534.46,153.56 L535.70,138.23 L536.94,123.92 L538.18,110.76 L539.43,98.90 L540.67,88.45 L541.91,79.51 L543.15,72.18 L544.39,66.52 L545.64,62.59 L546.88,60.44 L548.12,60.08 L549.36,61.52 L550.61,64.74 L551.85,69.72 L553.09,76.39 L554.33,84.70 L555.57,94.56 L556.82,105.88 L558.06,118.53 L559.30,132.40 L560.54,147.35 L561.78,163.22 L563.03,179.85 L564.27,197.09 L565.51,214.76 L566.75,232.68 L567.99,250.67 L569.24,268.55 L570.48,286.15 L571.72,303.29 L572.96,319.80 L574.20,335.51 L575.45,350.26 L576.69,363.92 L577.93,376.33 L579.17,387.38 L580.41,396.96 L581.66,404.98 L582.90,411.34 L584.14,415.99 L585.38,418.88 L586.62,419.99 L587.87,419.30 L589.11,416.81 L590.35,412.56 L591.59,406.59 L592.83,398.95 L594.08,389.72 L595.32,379.00 L596.56,366.89 L597.80,353.51 L599.04,338.99 L600.29,323.49 L601.53,307.15 L602.77,290.14 L604.01,272.63 L605.25,254.80 L606.50,236.81 L607.74,218.86 L608.98,201.12 L610.22,183.77 L611.46,166.98 L612.71,150.92 L613.95,135.75 L615.19,121.62 L616.43,108.68 L617.68,97.04 L618.92,86.84 L620.16,78.16 L621.40,71.10 L622.64,65.73 L623.89,62.11 L625.13,60.25 L626.37,60.20 L627.61,61.94 L628.85,65.46 L630.10,70.72 L631.34,77.68 L632.58,86.26 L633.82,96.37 L635.06,107.92 L636.31,120.79 L637.55,134.84 L638.79,149.96 L640.03,165.96 L641.27,182.71 L642.52,200.04 L643.76,217.76 L645.00,235.70 L646.24,253.69 L647.48,271.54 L648.73,289.07 L649.97,306.12 L651.21,322.50 L652.45,338.06 L653.69,352.64 L654.94,366.09 L656.18,378.29 L657.42,389.10 L658.66,398.42 L659.90,406.16 L661.15,412.24 L662.39,416.60 L663.63,419.20 L664.87,420.00 L666.11,419.00 L667.36,416.22 L668.60,411.68 L669.84,405.42 L671.08,397.51 L672.32,388.02 L673.57,377.06 L674.81,364.72 L676.05,351.14 L677.29,336.45 L678.54,320.79 L679.78,304.33 L681.02,287.23 L682.26,269.65 L683.50,251.78 L684.75,233.79 L685.99,215.86 L687.23,198.17 L688.47,180.90 L689.71,164.23 L690.96,148.30 L692.20,133.30 L693.44,119.36 L694.68,106.63 L695.92,95.22 L697.17,85.27 L698.41,76.86 L699.65,70.08 L700.89,65.00 L702.13,61.67 L703.38,60.12 L704.62,60.37 L705.86,62.41 L707.10,66.22 L708.34,71.78 L709.59,79.01 L710.83,87.85 L712.07,98.21 L713.31,109.99 L714.55,123.07 L715.80,137.32 L717.04,152.59 L718.28,168.73 L719.52,185.59 L720.76,202.99 L722.01,220.76 L723.25,238.73 L724.49,256.70 L725.73,274.51 L726.97,291.98 L728.22,308.92 L729.46,325.18 L730.70,340.58 L731.94,354.98 L733.18,368.24 L734.43,380.21 L735.67,390.77 L736.91,399.84 L738.15,407.30 L739.39,413.10 L740.64,417.16 L741.88,419.46 L743.12,419.96 L744.36,418.66 L745.61,415.58 L746.85,410.74 L748.09,404.20 L749.33,396.02 L750.57,386.28 L751.82,375.07 L753.06,362.52 L754.30,348.74 L755.54,333.88 L756.78,318.08 L758.03,301.50 L759.27,284.30 L760.51,266.66 L761.75,248.76 L762.99,230.77 L764.24,212.86 L765.48,195.24 L766.72,178.05 L767.96,161.49 L769.20,145.71 L770.45,130.88 L771.69,117.13 L772.93,104.61 L774.17,93.45 L775.41,83.74 L776.66,75.60 L777.90,69.11 L779.14,64.32 L780.38,61.28 L781.62,60.03 L782.87,60.58 L784.11,62.93 L785.35,67.04 L786.59,72.88 L787.83,80.39 L789.08,89.49 L790.32,100.10 L791.56,112.10 L792.80,125.39 L794.04,139.82 L795.29,155.25 L796.53,171.52 L797.77,188.48 L799.01,205.96 L800.25,223.78 L801.50,241.75 L802.74,259.71 L803.98,277.48 L805.22,294.87 L806.46,311.71 L807.71,327.83 L808.95,343.08 L810.19,357.30 L811.43,370.34 L812.68,382.08 L813.92,392.41 L815.16,401.21 L816.40,408.40 L817.64,413.90 L818.89,417.67 L820.13,419.67 L821.37,419.87 L822.61,418.27 L823.85,414.89 L825.10,409.76 L826.34,402.94 L827.58,394.49 L828.82,384.49 L830.06,373.05 L831.31,360.29 L832.55,346.32 L833.79,331.28 L835.03,315.34 L836.27,298.64 L837.52,281.36 L838.76,263.67 L840.00,245.73" fill="none" stroke="#1f77b4" stroke-width="2"/>
<text x="70" y="78" font-size="12" font-family="sans-serif" fill="#1f77b4">sin</text>
<path d="M60.00,60.00 L61.24,60.90 L62.48,63.59 L63.73,68.04 L64.97,74.21 L66.21,82.04 L67.45,91.44 L68.69,102.33 L69.94,114.59 L71.18,128.11 L72.42,142.75 L73.66,158.35 L74.90,174.78 L76.15,191.85 L77.39,209.41 L78.63,227.27 L79.87,245.26 L81.11,263.19 L82.36,280.90 L83.60,298.19 L84.84,314.91 L86.08,330.87 L87.32,345.93 L88.57,359.93 L89.81,372.73 L91.05,384.21 L92.29,394.24 L93.54,402.73 L94.78,409.60 L96.02,414.77 L97.26,418.20 L98.50,419.85 L99.75,419.69 L100.99,417.75 L102.23,414.03 L103.47,408.56 L104.71,401.42 L105.96,392.66 L107.20,382.38 L108.44,370.67 L109.68,357.66 L110.92,343.47 L112.17,328.25 L113.41,312.15 L114.65,295.32 L115.89,277.94 L117.13,260.19 L118.38,242.23 L119.62,224.25 L120.86,206.43 L122.10,188.94 L123.34,171.96 L124.59,155.67 L125.83,140.21 L127.07,125.76 L128.31,112.44 L129.55,100.40 L130.80,89.75 L132.04,80.61 L133.28,73.05 L134.52,67.17 L135.76,63.01 L137.01,60.62 L138.25,60.03 L139.49,61.23 L140.73,64.21 L141.97,68.96 L143.22,75.41 L144.46,83.51 L145.70,93.17 L146.94,104.30 L148.18,116.78 L149.43,130.50 L150.67,145.31 L151.91,161.06 L153.15,177.61 L154.39,194.77 L155.64,212.39 L156.88,230.29 L158.12,248.28 L159.36,266.19 L160.61,283.84 L161.85,301.05 L163.09,317.65 L164.33,333.47 L165.57,348.36 L166.82,362.17 L168.06,374.76 L169.30,386.00 L170.54,395.78 L171.78,404.01 L173.03,410.59 L174.27,415.47 L175.51,418.60 L176.75,419.95 L177.99,419.49 L179.24,417.25 L180.48,413.23 L181.72,407.48 L182.96,400.06 L184.20,391.03 L185.45,380.50 L186.69,368.57 L187.93,355.35 L189.17,340.98 L190.41,325.60 L191.66,309.36 L192.90,292.43 L194.14,274.98 L195.38,257.18 L196.62,239.20 L197.87,221.24 L199.11,203.46 L200.35,186.05 L201.59,169.17 L202.83,153.01 L204.08,137.71 L205.32,123.43 L206.56,110.32 L207.80,98.51 L209.04,88.11 L210.29,79.22 L211.53,71.95 L212.77,66.35 L214.01,62.49 L215.25,60.40 L216.50,60.10 L217.74,61.60 L218.98,64.89 L220.22,69.93 L221.46,76.66 L222.71,85.03 L223.95,94.94 L225.19,106.31 L226.43,119.01 L227.68,132.91 L228.92,147.89 L230.16,163.79 L231.40,180.45 L232.64,197.71 L233.89,215.39 L235.13,233.31 L236.37,251.30 L237.61,269.18 L238.85,286.77 L240.10,303.89 L241.34,320.37 L242.58,336.05 L243.82,350.76 L245.06,364.38 L246.31,376.75 L247.55,387.75 L248.79,397.27 L250.03,405.23 L251.27,411.53 L252.52,416.12 L253.76,418.95 L255.00,420.00 L256.24,419.24 L257.48,416.69 L258.73,412.38 L259.97,406.35 L261.21,398.65 L262.45,389.37 L263.69,378.59 L264.94,366.43 L266.18,353.01 L267.42,338.46 L268.66,322.92 L269.90,306.56 L271.15,289.53 L272.39,272.01 L273.63,254.16 L274.87,236.18 L276.11,218.23 L277.36,200.50 L278.60,183.17 L279.84,166.40 L281.08,150.37 L282.32,135.23 L283.57,121.14 L284.81,108.24 L286.05,96.66 L287.29,86.50 L288.54,77.88 L289.78,70.89 L291.02,65.58 L292.26,62.01 L293.50,60.22 L294.75,60.23 L295.99,62.03 L297.23,65.62 L298.47,70.94 L299.71,77.95 L300.96,86.59 L302.20,96.75 L303.44,108.35 L304.68,121.26 L305.92,135.36 L307.17,150.51 L308.41,166.55 L309.65,183.32 L310.89,200.66 L312.13,218.39 L313.38,236.34 L314.62,254.32 L315.86,272.16 L317.10,289.68 L318.34,306.71 L319.59,323.07 L320.83,338.59 L322.07,353.13 L323.31,366.55 L324.55,378.69 L325.80,389.46 L327.04,398.72 L328.28,406.41 L329.52,412.43 L330.76,416.72 L332.01,419.25 L333.25,419.99 L334.49,418.94 L335.73,416.09 L336.97,411.48 L338.22,405.17 L339.46,397.20 L340.70,387.66 L341.94,376.64 L343.18,364.26 L344.43,350.64 L345.67,335.91 L346.91,320.23 L348.15,303.74 L349.39,286.61 L350.64,269.02 L351.88,251.14 L353.12,233.15 L354.36,215.23 L355.61,197.55 L356.85,180.30 L358.09,163.65 L359.33,147.76 L360.57,132.79 L361.82,118.89 L363.06,106.20 L364.30,94.85 L365.54,84.94 L366.78,76.59 L368.03,69.87 L369.27,64.85 L370.51,61.58 L371.75,60.10 L372.99,60.41 L374.24,62.51 L375.48,66.39 L376.72,72.00 L377.96,79.29 L379.20,88.19 L380.45,98.61 L381.69,110.43 L382.93,123.55 L384.17,137.84 L385.41,153.15 L386.66,169.32 L387.90,186.20 L389.14,203.62 L390.38,221.40 L391.62,239.36 L392.87,257.34 L394.11,275.14 L395.35,292.59 L396.59,309.51 L397.83,325.74 L399.08,341.11 L400.32,355.47 L401.56,368.68 L402.80,380.60 L404.04,391.12 L405.29,400.13 L406.53,407.54 L407.77,413.27 L409.01,417.27 L410.25,419.50 L411.50,419.94 L412.74,418.58 L413.98,415.44 L415.22,410.54 L416.46,403.94 L417.71,395.70 L418.95,385.90 L420.19,374.65 L421.43,362.05 L422.68,348.24 L423.92,333.34 L425.16,317.50 L426.40,300.90 L427.64,283.68 L428.89,266.03 L430.13,248.12 L431.37,230.13 L432.61,212.24 L433.85,194.62 L435.10,177.46 L436.34,160.92 L437.58,145.17 L438.82,130.37 L440.06,116.67 L441.31,104.19 L442.55,93.08 L443.79,83.43 L445.03,75.35 L446.27,68.91 L447.52,64.18 L448.76,61.21 L450.00,60.02 L451.24,60.64 L452.48,63.04 L453.73,67.21 L454.97,73.11 L456.21,80.68 L457.45,89.84 L458.69,100.50 L459.94,112.55 L461.18,125.88 L462.42,140.35 L463.66,155.81 L464.90,172.11 L466.15,189.09 L467.39,206.59 L468.63,224.41 L469.87,242.39 L471.11,260.35 L472.36,278.10 L473.60,295.47 L474.84,312.29 L476.08,328.39 L477.32,343.60 L478.57,357.78 L479.81,370.78 L481.05,382.47 L482.29,392.74 L483.54,401.49 L484.78,408.62 L486.02,414.07 L487.26,417.77 L488.50,419.70 L489.75,419.84 L490.99,418.18 L492.23,414.74 L493.47,409.55 L494.71,402.67 L495.96,394.16 L497.20,384.11 L498.44,372.62 L499.68,359.81 L500.92,345.80 L502.17,330.74 L503.41,314.76 L504.65,298.04 L505.89,280.74 L507.13,263.03 L508.38,245.10 L509.62,227.11 L510.86,209.25 L512.10,191.70 L513.34,174.63 L514.59,158.21 L515.83,142.61 L517.07,127.99 L518.31,114.48 L519.55,102.23 L520.80,91.35 L522.04,81.96 L523.28,74.15 L524.52,67.99 L525.76,63.56 L527.01,60.88 L528.25,60.00 L529.49,60.92 L530.73,63.62 L531.97,68.09 L533.22,74.27 L534.46,82.11 L535.70,91.53 L536.94,102.43 L538.18,114.71 L539.43,128.24 L540.67,142.88 L541.91,158.50 L543.15,174.93 L544.39,192.00 L545.64,209.56 L546.88,227.43 L548.12,245.42 L549.36,263.35 L550.61,281.05 L551.85,298.34 L553.09,315.05 L554.33,331.01 L555.57,346.06 L556.82,360.05 L558.06,372.84 L559.30,384.30 L560.54,394.32 L561.78,402.80 L563.03,409.66 L564.27,414.81 L565.51,418.22 L566.75,419.85 L567.99,419.69 L569.24,417.72 L570.48,413.98 L571.72,408.51 L572.96,401.35 L574.20,392.57 L575.45,382.28 L576.69,370.56 L577.93,357.54 L579.17,343.34 L580.41,328.11 L581.66,312.00 L582.90,295.17 L584.14,277.79 L585.38,260.03 L586.62,242.07 L587.87,224.09 L589.11,206.27 L590.35,188.79 L591.59,171.82 L592.83,155.53 L594.08,140.08 L595.32,125.63 L596.56,112.33 L597.80,100.30 L599.04,89.66 L600.29,80.53 L601.53,72.99 L602.77,67.12 L604.01,62.98 L605.25,60.61 L606.50,60.03 L607.74,61.25 L608.98,64.25 L610.22,69.01 L611.46,75.48 L612.71,83.59 L613.95,93.26 L615.19,104.40 L616.43,116.90 L617.68,130.62 L618.92,145.44 L620.16,161.21 L621.40,177.76 L622.64,194.93 L623.89,212.55 L625.13,230.45 L626.37,248.44 L627.61,266.35 L628.85,283.99 L630.10,301.20 L631.34,317.79 L632.58,333.61 L633.82,348.49 L635.06,362.29 L636.31,374.86 L637.55,386.09 L638.79,395.86 L640.03,404.07 L641.27,410.64 L642.52,415.51 L643.76,418.62 L645.00,419.95 L646.24,419.48 L647.48,417.22 L648.73,413.18 L649.97,407.42 L651.21,399.98 L652.45,390.95 L653.69,380.40 L654.94,368.46 L656.18,355.23 L657.42,340.85 L658.66,325.46 L659.90,309.21 L661.15,292.28 L662.39,274.82 L663.63,257.02 L664.87,239.04 L666.11,221.08 L667.36,203.30 L668.60,185.89 L669.84,169.03 L671.08,152.87 L672.32,137.58 L673.57,123.31 L674.81,110.21 L676.05,98.41 L677.29,88.02 L678.54,79.15 L679.78,71.89 L681.02,66.31 L682.26,62.46 L683.50,60.39 L684.75,60.11 L685.99,61.63 L687.23,64.93 L688.47,69.98 L689.71,76.73 L690.96,85.11 L692.20,95.04 L693.44,106.41 L694.68,119.12 L695.92,133.04 L697.17,148.03 L698.41,163.94 L699.65,180.60 L700.89,197.87 L702.13,215.55 L703.38,233.47 L704.62,251.46 L705.86,269.34 L707.10,286.92 L708.34,304.04 L709.59,320.51 L710.83,336.18 L712.07,350.89 L713.31,364.49 L714.55,376.85 L715.80,387.84 L717.04,397.35 L718.28,405.29 L719.52,411.58 L720.76,416.16 L722.01,418.97 L723.25,420.00 L724.49,419.23 L725.73,416.66 L726.97,412.33 L728.22,406.28 L729.46,398.57 L730.70,389.28 L731.94,378.49 L733.18,366.32 L734.43,352.89 L735.67,338.32 L736.91,322.78 L738.15,306.41 L739.39,289.38 L740.64,271.85 L741.88,254.00 L743.12,236.02 L744.36,218.07 L745.61,200.35 L746.85,183.02 L748.09,166.25 L749.33,150.23 L750.57,135.10 L751.82,121.02 L753.06,108.13 L754.30,96.56 L755.54,86.42 L756.78,77.82 L758.03,70.83 L759.27,65.54 L760.51,61.99 L761.75,60.21 L762.99,60.24 L764.24,62.06 L765.48,65.66 L766.72,71.00 L767.96,78.02 L769.20,86.67 L770.45,96.85 L771.69,108.46 L772.93,121.38 L774.17,135.49 L775.41,150.65 L776.66,166.69 L777.90,183.47 L779.14,200.81 L780.38,218.55 L781.62,236.50 L782.87,254.48 L784.11,272.32 L785.35,289.84 L786.59,306.86 L787.83,323.21 L789.08,338.73 L790.32,353.26 L791.56,366.66 L792.80,378.80 L794.04,389.54 L795.29,398.80 L796.53,406.47 L797.77,412.47 L799.01,416.75 L800.25,419.27 L801.50,419.99 L802.74,418.92 L803.98,416.06 L805.22,411.44 L806.46,405.10 L807.71,397.12 L808.95,387.57 L810.19,376.54 L811.43,364.15 L812.68,350.51 L813.92,335.78 L815.16,320.08 L816.40,303.59 L817.64,286.46 L818.89,268.87 L820.13,250.98 L821.37,232.99 L822.61,215.07 L823.85,197.40 L825.10,180.15 L826.34,163.50 L827.58,147.62 L828.82,132.66 L830.06,118.77 L831.31,106.09 L832.55,94.75 L833.79,84.86 L835.03,76.53 L836.27,69.82 L837.52,64.82 L838.76,61.56 L840.00,60.09" fill="none" stroke="#d62728" stroke-width="2"/>
<text x="70" y="96" font-size="12" font-family="sans-serif" fill="#d62728">cos</text>
</svg>